<?xml version="1.0" standalone="no"?><!DOCTYPE svg PUBLIC "-//W3C//DTD SVG 1.1//EN" "http://www.w3.org/Graphics/SVG/1.1/DTD/svg11.dtd"><svg t="1747066128852" class="icon" viewBox="0 0 1024 1024" version="1.1" xmlns="http://www.w3.org/2000/svg" p-id="6559" xmlns:xlink="http://www.w3.org/1999/xlink" width="200" height="200"><path d="M913.18949273 968.10553227c-11.29527793 0-22.57674747-4.363457-31.11034375-13.06275419L76.05474375 131.89594663c-16.83244963-17.17765984-16.54247307-44.76685948 0.64899518-61.57169228 17.16385143-16.84625804 44.75305108-16.52866465 61.57169232 0.62137836L944.29983647 894.07865573c16.83244963 17.17765984 16.54247307 44.76685948-0.64899519 61.5716923-8.46455425 8.31266175-19.4560472 12.45518421-30.46134855 12.45518424z" fill="#2c2c2c" p-id="6560"></path><path d="M107.1788959 968.10553227c11.29527793 0 22.57674747-4.363457 31.11034375-13.06275419l806.01059682-823.13302303c16.83244963-17.17765984 16.54247307-44.76685948-0.64899519-61.5716923-17.16385143-16.84625804-44.75305108-16.52866465-61.5716923 0.62137837L76.05474375 894.07865573c-16.83244963 17.17765984-16.54247307 44.76685948 0.64899518 61.5716923 8.46455425 8.31266175 19.46985561 12.45518421 30.47515697 12.45518424z" fill="#2c2c2c" p-id="6561"></path></svg>