<?xml version="1.0" standalone="no"?><!DOCTYPE svg PUBLIC "-//W3C//DTD SVG 1.1//EN" "http://www.w3.org/Graphics/SVG/1.1/DTD/svg11.dtd"><svg class="icon" width="200px" height="181.24px" viewBox="0 0 1130 1024" version="1.1" xmlns="http://www.w3.org/2000/svg"><path fill="#ffffff" d="M557.81894815 961.99089278a72.27681417 72.27681417 0 0 1-44.52251749-14.45536231L508.81526826 943.77713575C406.47129893 867.59737315 160.29646894 672.01631387 86.14045742 495.66088672c0-1.59008994-1.15642881-3.18017988-1.73464365-4.4811624a269.88162539 269.88162539 0 0 1-21.53849062-100.8984331 19.37018585 19.37018585 0 0 1 0-3.03562619 130.09826602 130.09826602 0 0 1-0.86732139-14.45536318C62.14455547 201.34969824 196.72398388 62 362.23788886 62a294.45574219 294.45574219 0 0 1 196.30382784 76.75797655 299.94877969 299.94877969 0 0 1 78.92628135-51.60564491A289.10725753 289.10725753 0 0 1 755.13465195 62c165.51390498 0 300.23788711 139.34969824 300.23788711 310.64574815v17.78009677a250.22233125 250.22233125 0 0 1-18.50286445 89.6232498 336.37629463 336.37629463 0 0 1-17.05732823 38.88492627l-1.01187597 2.0237502v1.01187598L1016.19850537 524.57161221l-0.86732139 1.87919736-0.86732226 1.59008994a168.54953115 168.54953115 0 0 1-10.26330732 18.06920332C908.9397125 708.87748906 694.85578877 878.14978877 606.96718174 943.77713575l-4.04750127 3.03562617a72.27681417 72.27681417 0 0 1-45.10073232 15.17813086zM362.23788886 113.75019951c-136.89228692 0-248.48768759 115.64290283-248.48768847 258.89554864a93.67075107 93.67075107 0 0 0 0.86732227 10.98607588v6.79402089a216.83044336 216.83044336 0 0 0 18.06920331 80.95003154v3.3247336c31.3681377 75.16788662 105.52414922 168.26042373 214.37303116 269.15885684A2257.6385751 2257.6385751 0 0 0 539.17152998 902.00113701l5.34848467 3.90294844a21.82759805 21.82759805 0 0 0 12.86527324 4.33660869 21.53849063 21.53849063 0 0 0 13.15437979-4.4811624l5.05937724-3.90294844c85.28664112-63.31448935 293.44386622-227.67196551 383.64533086-382.34434835v-1.1564288a153.08229287 153.08229287 0 0 0 7.95044971-14.45536318v-1.15642882a8.52866367 8.52866367 0 0 1 0-1.1564288c0-1.0118751 1.15642881-2.31285849 1.73464365-3.61384101v-1.73464366a14.45536318 14.45536318 0 0 1 1.44553623-2.45741133 274.65189521 274.65189521 0 0 0 14.45536231-31.65724512 202.37508018 202.37508018 0 0 0 14.45536318-71.40949189 22.26125917 22.26125917 0 0 0 0-2.45741221v-5.34848378a94.82718076 94.82718076 0 0 0 0-9.82964707c0-142.67443183-111.59540156-258.7509958-248.4876876-258.75099581a243.42831123 243.42831123 0 0 0-173.17524815 78.78172765l-19.08107841 20.38206181L539.17152998 193.11014112a242.27188154 242.27188154 0 0 0-176.93364111-79.35994161zM463.13632109 381.89718037L293.43036114 494.64901075a11.85339727 11.85339727 0 0 0-3.18017989 16.33456054l10.98607588 16.47911338a11.85339727 11.85339727 0 0 0 16.33456054 3.32473359l144.55362832-96.85093096a11.85339727 11.85339727 0 0 1 13.00982696 0l160.45452773 106.96968546a11.85339727 11.85339727 0 0 0 13.00982695 0l169.27229883-112.75183125a11.85339727 11.85339727 0 0 0 3.3247336-16.33455968l-10.98607588-16.47911337a11.70884356 11.70884356 0 0 0-16.33455967-3.32473359l-144.5536292 96.85093095a11.85339727 11.85339727 0 0 1-13.00982607 0l-160.45452862-106.96968545a11.85339727 11.85339727 0 0 0-12.72071953 0z" /></svg>